<?xml version="1.0" encoding="utf-8"?>
<!-- Generator: Adobe Illustrator 26.2.1, SVG Export Plug-In . SVG Version: 6.00 Build 0)  -->
<svg version="1.1" id="レイヤー_1" xmlns="http://www.w3.org/2000/svg" xmlns:xlink="http://www.w3.org/1999/xlink" x="0px"
	 y="0px" viewBox="0 0 998.25 1296.51" style="enable-background:new 0 0 998.25 1296.51;" xml:space="preserve">
<style type="text/css">
	.st0{fill:#4169E1;}
	.st1{font-family:'HiraKakuStdN-W8-83pv-RKSJ-H';}
	.st2{font-size:146.5962px;}
</style>
<g>
	<g>
		<g>
			<g>
				<polygon class="st0" points="541.39,57.94 499.12,33.54 387.96,97.72 452.79,196.1 				"/>
			</g>
		</g>
		<g>
			<g>
				<polygon class="st0" points="909.47,270.46 815.24,216.05 806.96,393.77 				"/>
			</g>
		</g>
		<g>
			<g>
				<polygon class="st0" points="682.07,544.01 770.4,437.75 781.65,196.65 571.28,75.2 473.56,227.61 				"/>
			</g>
		</g>
		<g>
			<g>
				<polygon class="st0" points="232.06,604.23 84.14,834.92 324.75,973.83 433.07,843.54 				"/>
			</g>
		</g>
		<g>
			<g>
				<polygon class="st0" points="432.43,227.87 358.04,114.99 48.37,293.78 48.37,331.91 228.33,546.17 				"/>
			</g>
		</g>
		<g>
			<g>
				<polygon class="st0" points="759.94,662.18 767.74,494.89 701.89,574.1 				"/>
			</g>
		</g>
		<g>
			<g>
				<polygon class="st0" points="251.56,573.83 455.47,816.59 659.03,571.72 453.19,259.37 				"/>
			</g>
		</g>
		<g>
			<g>
				<polygon class="st0" points="792.16,711.08 884.89,851.79 949.88,814.27 949.88,293.78 939.77,287.95 804.29,450.92 				"/>
			</g>
		</g>
		<g>
			<g>
				<polygon class="st0" points="48.37,385.53 48.37,814.27 54.25,817.66 208.83,576.57 				"/>
			</g>
		</g>
		<g>
			<g>
				<polygon class="st0" points="355.05,991.33 499.12,1074.51 585.28,1024.77 455.6,870.37 				"/>
			</g>
		</g>
		<g>
			<g>
				<polygon class="st0" points="783.22,910.88 855.12,868.87 789.07,769.75 				"/>
			</g>
		</g>
		<g>
			<g>
				<polygon class="st0" points="678.86,601.81 478,843.42 615.61,1007.26 747.4,931.17 757.21,720.71 				"/>
			</g>
		</g>
		<g>
			<g>
				<polygon points="767.74,494.89 759.94,662.18 792.16,711.08 804.29,450.92 				"/>
			</g>
		</g>
		<g>
			<g>
				<polygon points="806.96,393.77 815.24,216.05 781.65,196.65 770.4,437.75 				"/>
			</g>
		</g>
		<g>
			<g>
				<polygon points="757.21,720.71 747.4,931.17 782.86,910.7 789.43,769.6 				"/>
			</g>
		</g>
		<g>
			<g>
				<polygon points="251.56,573.83 232.06,604.23 433.07,843.54 455.47,816.59 				"/>
			</g>
		</g>
		<g>
			<g>
				<polygon points="455.6,870.37 585.28,1024.77 615.61,1007.26 478,843.42 				"/>
			</g>
		</g>
		<g>
			<g>
				<polygon points="228.33,546.17 48.37,331.91 48.37,385.53 208.83,576.57 				"/>
			</g>
		</g>
		<g>
			<g>
				<polygon points="228.33,546.17 208.83,576.57 232.06,604.23 251.56,573.83 				"/>
			</g>
		</g>
		<g>
			<g>
				<polygon points="433.07,843.54 455.6,870.37 478,843.42 455.47,816.59 				"/>
			</g>
		</g>
		<text transform="matrix(1.2641 -6.472294e-03 5.120000e-03 1 262.8937 1253.87)" class="st1 st2">MPS</text>
	</g>
</g>
</svg>
